<?xml version="1.0" encoding="UTF-8"?>
<svg id="Camada_1" data-name="Camada 1" xmlns="http://www.w3.org/2000/svg" version="1.1" viewBox="0 0 1920 1080">
  <defs>
    <style>
      .cls-1 {
        fill: #ac1019;
      }

      .cls-1, .cls-2, .cls-3 {
        stroke-width: 0px;
      }

      .cls-2 {
        fill: #fdfdfd;
      }

      .cls-3 {
        fill: #090909;
      }
    </style>
  </defs>
  <path class="cls-2" d="M872.79,580.44c0-36.31.05-72.61-.08-108.92-.01-2.98.6-3.58,3.58-3.58,72.61.11,145.23.11,217.84,0,2.98,0,3.58.6,3.58,3.58-.11,72.61-.11,145.23,0,217.84,0,2.98-.6,3.58-3.58,3.58-72.61-.11-145.23-.11-217.84,0-2.98,0-3.59-.6-3.58-3.58.13-36.31.08-72.61.08-108.92ZM1024.03,483.92c-19.22,0-37.84.63-56.39-.28-8.55-.42-11.93,2.82-15.11,9.99-23.82,53.76-48.02,107.35-72.1,161q-2.23,4.96,3.43,4.97c67.24,0,134.49,0,201.73,0,1.6,0,3.19,0,5.45,0-.93-1.85-1.56-3.14-2.21-4.41-24.53-48.34-49.03-96.68-73.66-144.97-1.2-2.35-1.25-4.13-.15-6.43,3.05-6.39,5.87-12.88,9.01-19.86Z"/>
  <path class="cls-3" d="M1024.03,483.92c-3.14,6.97-5.96,13.47-9.01,19.86-1.1,2.3-1.05,4.08.15,6.43,24.62,48.29,49.13,96.64,73.66,144.97.65,1.28,1.28,2.56,2.21,4.41-2.25,0-3.85,0-5.45,0-67.24,0-134.49,0-201.73,0q-5.65,0-3.43-4.97c24.08-53.64,48.29-107.23,72.1-161,3.18-7.17,6.56-10.41,15.11-9.99,18.55.91,37.18.28,56.39.28ZM1063.77,622.76c-.79-1.6-1.42-2.9-2.08-4.19-16.6-32.66-32.91-65.48-50-97.88-4.73-8.98-7.48-16.9-1.01-25.83,1.99-2.75.81-3.55-2.26-3.53-13.65.11-27.3.21-40.94-.06-3.89-.08-5.76,1.05-7.37,4.68-14.3,32.25-28.83,64.39-43.28,96.58-4.46,9.93-8.87,19.89-13.47,30.23h160.41ZM1025.25,644.49c-1.44-4.8-2.49-8.63-3.75-12.39-1.46-4.34-5.11-1.6-7.71-2.1-2.84-.54-1.98,1.97-2,3.4-.08,5.16.03,10.32-.06,15.48-.04,1.99.32,3,2.69,3.01,2.45,0,2.65-1.2,2.62-3.08-.07-3.82-.02-7.64-.02-12.07,2.59,4.07,3.06,8.4,4.49,12.34.65,1.81,1.19,2.76,3.31,2.79,2.23.04,3.26-.7,3.83-2.85,1-3.73,2.3-7.37,3.48-11.05,1,3.96,1.05,7.73.98,11.51-.04,2.12,1.12,2.36,2.85,2.37,1.74,0,2.78-.2,2.74-2.36-.11-5.82-.03-11.65-.03-17.47,0-1.02-.07-1.76-1.41-2.13-4.42-1.21-7.39.32-8.78,4.74-.94,2.98-1.93,5.95-3.21,9.87ZM966.1,641.6c.53,2.9-1.78,7.99,1.03,9.63,3.17,1.86,8.05.98,12.11,0,4.74-1.15,7.26-4.28,7.66-9.13.61-7.42-3.4-11.9-10.9-12.18q-9.9-.36-9.9,9.57v2.11ZM917.59,651.5c-2.55-6.73-5.02-13.05-7.32-19.43-.61-1.7-1.54-2.51-3.24-2.14-1.77.38-4.22-1.26-5.24,1.32-2.64,6.67-5.1,13.42-7.68,20.25,3.57.56,6.12.83,7.09-3.15.47-1.92,8.11-2.09,8.64-.2,1.21,4.31,4.11,3.93,7.76,3.36ZM1076.28,651.6c-2.56-6.72-5.19-13.15-7.41-19.71-.9-2.67-2.71-1.89-4.36-1.96-1.72-.07-3.54-.54-4.42,1.95-2.3,6.54-4.85,12.99-7.35,19.62,3.25.43,6.02,1.16,7.12-3.21.54-2.16,8.27-1.91,8.86.29,1.08,4.04,3.85,3.27,7.56,3.01ZM963.7,651.62c-2.5-6.72-4.97-13.18-7.29-19.7-.85-2.39-2.66-2.11-4.44-2-1.65.11-3.51-.72-4.41,1.93-2.24,6.55-4.84,12.97-7.39,19.71,3.17.2,5.92,1.33,7.01-2.91.59-2.28,8.29-2.56,8.86-.35,1.2,4.7,4.36,3.4,7.66,3.32ZM991.41,639.99q0,11.89,11.26,11.8c.66,0,1.33-.06,1.99,0,1.66.16,2.38-.47,2.35-2.22-.02-1.76-.79-2.34-2.43-2.27-1.49.07-2.99-.07-4.48.03-1.85.13-2.68-.41-2.69-2.46-.02-2.3,1.3-2.27,2.89-2.22,1.16.04,2.33-.07,3.49.02,1.75.14,2.37-.67,2.36-2.32-.01-1.75-.9-2.29-2.52-2.19-1.32.09-2.66-.07-3.98.03-1.84.14-2.22-.78-2.2-2.39.02-1.55.7-2.01,2.11-1.95,1.66.07,3.32,0,4.98.04,1.35.04,2.14-.3,2.13-1.92,0-1.45-.39-2.16-1.94-2.11-4.28.15-9.16-.93-12.64.8-2.24,1.11-.3,6.44-.68,9.3ZM932.26,652.24c.38-.04,1.06-.05,1.7-.19,1.85-.43,4.73.56,4.1-3.23-.65-3.94-2.96-1.18-4.46-1.15-3.03.06-5.73-.54-7.27-3.33-1.35-2.45-1.34-5.17.12-7.6,1.95-3.25,5.13-3.18,8.41-2.79.95.11,2.42,2.28,2.92-.47.3-1.67.62-3.18-1.89-3.7-5.19-1.08-10.04-.88-13.84,3.23-3.56,3.84-3.66,8.48-1.64,13.03,2.18,4.93,6.66,6.1,11.85,6.2ZM1049.91,641.38c0-2.81-.13-5.62.04-8.41.14-2.28-.47-3.22-2.97-3.14-2.25.07-3.25.52-3.16,3.03.18,5.11.11,10.23.03,15.34-.03,2.18,0,3.7,3.01,3.71,2.94.01,3.18-1.34,3.07-3.6-.11-2.3-.03-4.62-.03-6.93Z"/>
  <path class="cls-2" d="M1063.77,622.76h-160.41c4.61-10.34,9.01-20.3,13.47-30.23,14.45-32.18,28.98-64.33,43.28-96.58,1.61-3.63,3.48-4.75,7.37-4.68,13.64.27,27.29.17,40.94.06,3.08-.02,4.25.78,2.26,3.53-6.48,8.93-3.73,16.85,1.01,25.83,17.09,32.4,33.4,65.22,50,97.88.65,1.29,1.29,2.59,2.08,4.19ZM1052.4,615.86c-13.85-27.34-27.33-53.92-40.75-80.53-1.03-2.04-2.6-2.13-4.51-2.12-6.86.06-13.73.03-21.3.03,4.7-10.53,8.85-20.27,13.4-29.81,1.75-3.66,2.05-5.06-2.85-4.86-8.31.35-16.65.27-24.96-.03-3.53-.12-5.21,1.02-6.65,4.26-15.57,34.97-31.35,69.84-46.96,104.79-1.17,2.62-2.96,5.12-3.06,8.26h137.65Z"/>
  <path class="cls-2" d="M1025.25,644.49c1.28-3.92,2.27-6.88,3.21-9.87,1.39-4.42,4.36-5.95,8.78-4.74,1.34.37,1.41,1.11,1.41,2.13,0,5.82-.08,11.65.03,17.47.04,2.16-1,2.37-2.74,2.36-1.73,0-2.89-.24-2.85-2.37.08-3.77.02-7.55-.98-11.51-1.18,3.68-2.48,7.32-3.48,11.05-.58,2.15-1.6,2.89-3.83,2.85-2.12-.04-2.66-.98-3.31-2.79-1.42-3.94-1.89-8.27-4.49-12.34,0,4.43-.05,8.25.02,12.07.03,1.88-.16,3.09-2.62,3.08-2.37,0-2.72-1.02-2.69-3.01.09-5.16-.02-10.32.06-15.48.02-1.43-.84-3.94,2-3.4,2.6.5,6.26-2.24,7.71,2.1,1.26,3.76,2.31,7.59,3.75,12.39Z"/>
  <path class="cls-2" d="M966.1,641.6v-2.11q0-9.93,9.9-9.57c7.5.28,11.51,4.76,10.9,12.18-.4,4.85-2.93,7.98-7.66,9.13-4.07.99-8.94,1.86-12.11,0-2.81-1.64-.5-6.73-1.03-9.63ZM980.84,640.71c.02-4.13-2.42-6.81-6.31-6.55-4.41.29-1.56,3.79-2.24,5.72-.36,1.02-.08,2.28-.06,3.44.08,3.78,2.27,5.06,5.61,3.19,2.23-1.24,3.12-3.29,3-5.8Z"/>
  <path class="cls-2" d="M917.59,651.5c-3.65.57-6.55.95-7.76-3.36-.53-1.89-8.17-1.72-8.64.2-.97,3.99-3.51,3.72-7.09,3.15,2.58-6.83,5.04-13.58,7.68-20.25,1.02-2.58,3.47-.94,5.24-1.32,1.7-.36,2.63.44,3.24,2.14,2.3,6.38,4.77,12.7,7.32,19.43ZM904.56,635.63c.81,3.17-2.34,4.97-.23,7.15.52.53,3.15.08,3.18-.14.31-2.35-.24-4.52-2.95-7.01Z"/>
  <path class="cls-2" d="M1076.28,651.6c-3.71.27-6.48,1.04-7.56-3.01-.59-2.21-8.32-2.45-8.86-.29-1.09,4.36-3.87,3.63-7.12,3.21,2.5-6.63,5.05-13.08,7.35-19.62.88-2.49,2.7-2.02,4.42-1.95,1.65.07,3.46-.71,4.36,1.96,2.22,6.56,4.85,12.98,7.41,19.71ZM1061.88,642.6c1.66.4,4.07.9,4.34-.03.67-2.29-.66-4.51-2.14-6.82-.81,2.5-1.5,4.65-2.21,6.85Z"/>
  <path class="cls-2" d="M963.7,651.62c-3.3.08-6.45,1.37-7.66-3.32-.57-2.2-8.27-1.93-8.86.35-1.09,4.24-3.85,3.11-7.01,2.91,2.56-6.74,5.16-13.16,7.39-19.71.91-2.65,2.76-1.82,4.41-1.93,1.78-.11,3.59-.39,4.44,2,2.32,6.52,4.79,12.98,7.29,19.7ZM949.66,642.64c1.47.28,3.61,1.01,4.04-.28.67-2.02-.71-4.03-1.95-6.39-1.14,2.57-2.11,4.44-2.09,6.67Z"/>
  <path class="cls-2" d="M991.41,639.99c.38-2.86-1.56-8.19.68-9.3,3.48-1.73,8.36-.65,12.64-.8,1.54-.06,1.93.66,1.94,2.11,0,1.61-.78,1.95-2.13,1.92-1.66-.05-3.32.02-4.98-.04-1.41-.06-2.1.41-2.11,1.95-.02,1.61.36,2.53,2.2,2.39,1.32-.1,2.66.05,3.98-.03,1.62-.11,2.51.44,2.52,2.19.01,1.65-.61,2.47-2.36,2.32-1.15-.09-2.32.02-3.49-.02-1.58-.05-2.9-.08-2.89,2.22.02,2.05.85,2.59,2.69,2.46,1.49-.11,2.99.04,4.48-.03,1.64-.08,2.41.51,2.43,2.27.02,1.75-.69,2.38-2.35,2.22-.66-.06-1.33-.01-1.99,0q-11.26.09-11.26-11.8Z"/>
  <path class="cls-2" d="M932.26,652.24c-5.19-.11-9.67-1.28-11.85-6.2-2.01-4.56-1.91-9.19,1.64-13.03,3.8-4.11,8.66-4.31,13.84-3.23,2.51.52,2.19,2.03,1.89,3.7-.5,2.74-1.96.58-2.92.47-3.28-.39-6.46-.46-8.41,2.79-1.46,2.43-1.47,5.15-.12,7.6,1.54,2.79,4.24,3.39,7.27,3.33,1.5-.03,3.81-2.78,4.46,1.15.63,3.79-2.25,2.8-4.1,3.23-.64.15-1.32.15-1.7.19Z"/>
  <path class="cls-2" d="M1049.91,641.38c0,2.31-.09,4.63.03,6.93.11,2.26-.13,3.61-3.07,3.6-3.02-.01-3.05-1.54-3.01-3.71.08-5.11.15-10.24-.03-15.34-.09-2.51.91-2.96,3.16-3.03,2.49-.07,3.1.87,2.97,3.14-.17,2.8-.04,5.61-.04,8.41Z"/>
  <path class="cls-3" d="M1052.4,615.86h-137.65c.09-3.14,1.89-5.64,3.06-8.26,15.61-34.95,31.39-69.82,46.96-104.79,1.44-3.24,3.12-4.39,6.65-4.26,8.31.29,16.66.37,24.96.03,4.9-.2,4.6,1.19,2.85,4.86-4.55,9.54-8.7,19.28-13.4,29.81,7.57,0,14.44.04,21.3-.03,1.91-.02,3.48.08,4.51,2.12,13.42,26.61,26.9,53.18,40.75,80.53ZM1013.76,593.94c-18.95,0-36.91-.04-54.87.04-3.44.02-3.5-1.24-2.25-3.89,2.63-5.56,5.04-11.22,7.56-16.84,9.99-22.3,19.91-44.63,30.07-66.86,1.9-4.14.65-4.71-3.18-4.57-5.65.21-11.34.34-16.97-.05-4.02-.28-5.86,1.3-7.43,4.84-15.07,33.87-30.29,67.68-45.56,101.47-1.57,3.46-1.69,4.87,2.89,4.86,39.44-.13,78.89-.12,118.33-.02,3.84,0,4.63-.74,2.78-4.34-11.7-22.78-23.27-45.62-34.8-68.48-1.2-2.39-2.65-3.47-5.39-3.36-4.99.19-10,.29-14.97-.02-4.67-.29-4.58,1.56-2.87,4.86,5.21,10.04,10.35,20.11,15.49,30.19,3.61,7.08,7.15,14.19,11.18,22.19ZM982.77,540.09c-7.51,16.63-14.66,32.38-21.7,48.17-1.55,3.48,1.49,2.43,2.92,2.44,13.45.07,26.9-.04,40.35.1,3.35.04,4.08-.49,2.4-3.74-7.92-15.26-15.65-30.61-23.97-46.97Z"/>
  <path class="cls-3" d="M980.84,640.7c.12,2.51-.77,4.56-3,5.8-3.34,1.86-5.54.58-5.61-3.19-.02-1.15-.31-2.41.06-3.44.68-1.93-2.17-5.43,2.24-5.72,3.9-.26,6.34,2.43,6.31,6.55Z"/>
  <path class="cls-3" d="M904.56,635.63c2.72,2.48,3.26,4.66,2.95,7.01-.03.22-2.66.68-3.18.14-2.11-2.18,1.04-3.98.23-7.15Z"/>
  <path class="cls-3" d="M1061.88,642.6c.71-2.2,1.4-4.34,2.21-6.85,1.47,2.31,2.8,4.52,2.14,6.82-.27.93-2.69.43-4.34.03Z"/>
  <path class="cls-3" d="M949.66,642.64c-.02-2.23.94-4.1,2.09-6.67,1.24,2.36,2.62,4.37,1.95,6.39-.43,1.29-2.57.57-4.04.28Z"/>
  <path class="cls-1" d="M1013.76,593.94c-4.02-7.99-7.57-15.11-11.18-22.19-5.13-10.08-10.28-20.15-15.49-30.19-1.71-3.3-1.8-5.15,2.87-4.86,4.97.31,9.99.21,14.97.02,2.74-.1,4.19.97,5.39,3.36,11.53,22.87,23.1,45.71,34.8,68.48,1.85,3.6,1.06,4.35-2.78,4.34-39.44-.1-78.89-.11-118.33.02-4.58.02-4.46-1.4-2.89-4.86,15.28-33.78,30.49-67.59,45.56-101.47,1.57-3.54,3.41-5.12,7.43-4.84,5.63.39,11.32.27,16.97.05,3.83-.15,5.08.42,3.18,4.57-10.16,22.22-20.07,44.56-30.07,66.86-2.52,5.61-4.93,11.28-7.56,16.84-1.25,2.65-1.19,3.91,2.25,3.89,17.96-.08,35.92-.04,54.87-.04Z"/>
  <path class="cls-2" d="M982.77,540.09c8.32,16.36,16.05,31.71,23.97,46.97,1.69,3.25.95,3.77-2.4,3.74-13.45-.14-26.9-.03-40.35-.1-1.43,0-4.47,1.04-2.92-2.44,7.04-15.79,14.19-31.53,21.7-48.17Z"/>
</svg>